<?xml version="1.0" encoding="utf-8"?>
<!-- Generator: Adobe Illustrator 24.0.1, SVG Export Plug-In . SVG Version: 6.00 Build 0)  -->
<svg version="1.1" id="レイヤー_1" xmlns="http://www.w3.org/2000/svg" xmlns:xlink="http://www.w3.org/1999/xlink" x="0px"
	 y="0px" width="300px" height="50px" viewBox="0 0 300 50" style="enable-background:new 0 0 300 50;" xml:space="preserve">
<style type="text/css">
	.st0{fill:#007AC3;}
	.st1{fill:url(#SVGID_1_);}
	.st2{fill-rule:evenodd;clip-rule:evenodd;fill:#007AC3;}
	.st3{fill-rule:evenodd;clip-rule:evenodd;fill:#00A7EB;}
	.st4{fill:#004B7F;}
</style>
<g>
	<path class="st0" d="M47.759,26.703c0-1.044,0.533-1.567,1.601-1.567h19.312c1.544,0,2.934,0.131,4.172,0.392
		c1.237,0.261,2.287,0.63,3.151,1.107c0.863,0.476,1.527,1.055,1.992,1.737c0.465,0.681,0.698,1.442,0.698,2.282v4.939
		c0,0.84-0.233,1.601-0.698,2.282c-0.466,0.681-1.13,1.26-1.992,1.737c-0.863,0.477-1.913,0.846-3.151,1.107
		c-1.238,0.261-2.628,0.391-4.172,0.391H52.289v7.255c0,0.659-0.193,1.09-0.579,1.294c-0.386,0.204-0.954,0.306-1.703,0.306
		c-0.727,0-1.283-0.102-1.669-0.306c-0.386-0.205-0.579-0.635-0.579-1.294V26.703z M52.289,28.815v8.617h15.974
		c1.158,0,2.117-0.057,2.878-0.171c0.76-0.113,1.368-0.266,1.822-0.459c0.454-0.193,0.772-0.42,0.954-0.682
		c0.182-0.26,0.273-0.55,0.273-0.868v-4.258c0-0.295-0.091-0.579-0.273-0.851c-0.182-0.272-0.5-0.505-0.954-0.698
		c-0.454-0.192-1.062-0.346-1.822-0.46c-0.761-0.113-1.72-0.17-2.878-0.17H52.289z"/>
	<path class="st0" d="M81.665,26.703c0-1.044,0.533-1.567,1.601-1.567h19.142c1.544,0,2.935,0.131,4.172,0.392
		c1.237,0.261,2.288,0.63,3.151,1.107c0.863,0.476,1.527,1.055,1.993,1.737c0.465,0.681,0.698,1.442,0.698,2.282v4.292
		c0,0.84-0.233,1.601-0.698,2.282c-0.466,0.681-1.13,1.26-1.993,1.737c-0.863,0.477-1.913,0.846-3.151,1.107
		c-1.238,0.261-2.628,0.391-4.172,0.391h-1.362c-0.999,0-1.868,0-2.606,0c-0.738,0-1.391-0.005-1.958-0.017
		c-0.568-0.011-1.079-0.028-1.533-0.051c-0.455-0.022-0.897-0.045-1.328-0.068v0.068c0.363,0.136,0.755,0.279,1.175,0.426
		c0.42,0.148,0.937,0.335,1.55,0.562c0.613,0.227,1.357,0.511,2.231,0.851c0.874,0.341,1.958,0.772,3.253,1.294l8.209,3.304
		c0.727,0.296,1.09,0.807,1.09,1.533c0,0.613-0.199,1.033-0.596,1.26c-0.397,0.226-0.971,0.34-1.72,0.34
		c-0.159,0-0.358-0.006-0.596-0.017c-0.238-0.012-0.483-0.034-0.732-0.068c-0.25-0.034-0.494-0.079-0.732-0.136
		c-0.238-0.056-0.449-0.141-0.63-0.256l-19.925-8.617v7.493c0,0.659-0.193,1.09-0.579,1.294c-0.386,0.204-0.954,0.306-1.703,0.306
		c-0.727,0-1.283-0.102-1.669-0.306c-0.386-0.205-0.579-0.635-0.579-1.294V26.703z M86.195,28.815v8.038h15.804
		c1.158,0,2.117-0.057,2.878-0.171c0.76-0.113,1.368-0.266,1.822-0.459c0.454-0.193,0.772-0.42,0.954-0.681
		c0.181-0.261,0.273-0.55,0.273-0.869v-3.679c0-0.295-0.091-0.579-0.273-0.851c-0.182-0.272-0.5-0.505-0.954-0.698
		c-0.455-0.192-1.062-0.346-1.822-0.46c-0.761-0.113-1.72-0.17-2.878-0.17H86.195z"/>
	<path class="st0" d="M120.027,48.365c0,0.659-0.193,1.09-0.579,1.294c-0.386,0.204-0.954,0.306-1.703,0.306
		c-0.727,0-1.283-0.102-1.669-0.306c-0.386-0.205-0.579-0.635-0.579-1.294V26.601c0-0.658,0.193-1.09,0.579-1.294
		c0.386-0.204,0.942-0.306,1.669-0.306c0.749,0,1.317,0.102,1.703,0.306c0.386,0.205,0.579,0.636,0.579,1.294V48.365z"/>
	<path class="st0" d="M140.637,49.966c-0.659,0-1.198-0.102-1.618-0.306c-0.421-0.205-0.767-0.499-1.039-0.886l-14.986-21.185
		c-0.182-0.295-0.273-0.556-0.273-0.783c0-0.25,0.079-0.482,0.238-0.698c0.159-0.216,0.369-0.409,0.63-0.579
		c0.261-0.17,0.545-0.301,0.852-0.392c0.307-0.09,0.607-0.136,0.903-0.136c0.295,0,0.596,0.057,0.902,0.17
		c0.307,0.114,0.55,0.296,0.732,0.545l13.76,19.789l13.624-19.789c0.295-0.477,0.794-0.715,1.498-0.715
		c0.295,0,0.59,0.046,0.886,0.136c0.295,0.091,0.567,0.222,0.818,0.392c0.25,0.17,0.454,0.363,0.613,0.579
		c0.158,0.216,0.238,0.459,0.238,0.732c0,0.272-0.091,0.523-0.273,0.749l-14.816,21.185c-0.273,0.387-0.625,0.681-1.056,0.886
		C141.84,49.864,141.295,49.966,140.637,49.966z"/>
	<path class="st0" d="M167.87,25.034c0.659,0,1.197,0.102,1.618,0.307c0.42,0.204,0.767,0.499,1.039,0.885l14.85,21.185
		c0.158,0.251,0.238,0.511,0.238,0.783c0,0.251-0.074,0.489-0.221,0.716c-0.148,0.227-0.341,0.42-0.579,0.578
		c-0.239,0.16-0.506,0.285-0.8,0.375c-0.296,0.09-0.591,0.136-0.886,0.136c-0.318,0-0.601-0.051-0.851-0.153
		c-0.25-0.102-0.466-0.278-0.647-0.528l-4.019-5.858h-18.938l-3.78,5.858c-0.159,0.251-0.369,0.426-0.63,0.528
		c-0.261,0.102-0.54,0.153-0.835,0.153c-0.273,0-0.557-0.046-0.852-0.136c-0.295-0.09-0.562-0.221-0.8-0.392
		c-0.238-0.17-0.432-0.363-0.579-0.578c-0.148-0.216-0.221-0.46-0.221-0.733c0-0.226,0.079-0.476,0.238-0.749l13.965-21.185
		c0.25-0.386,0.59-0.681,1.022-0.885C166.633,25.136,167.189,25.034,167.87,25.034z M161.025,39.782h14.067L167.87,29.19
		L161.025,39.782z"/>
	<path class="st0" d="M195.091,28.815v19.551c0,0.659-0.193,1.09-0.579,1.294c-0.386,0.204-0.953,0.306-1.703,0.306
		c-0.727,0-1.283-0.102-1.669-0.306c-0.387-0.205-0.579-0.635-0.579-1.294V28.815h-10.252c-0.545,0-0.902-0.153-1.073-0.46
		c-0.17-0.306-0.256-0.766-0.256-1.379s0.085-1.073,0.256-1.379c0.17-0.307,0.528-0.46,1.073-0.46h25.068
		c0.545,0,0.903,0.153,1.073,0.46c0.17,0.306,0.255,0.766,0.255,1.379s-0.085,1.073-0.255,1.379c-0.17,0.307-0.528,0.46-1.073,0.46
		H195.091z"/>
	<path class="st0" d="M212.536,39.51v3.985c0,0.727,0.454,1.351,1.362,1.873c0.908,0.523,2.361,0.783,4.36,0.783h16.281
		c0.545,0,0.902,0.153,1.072,0.46c0.171,0.306,0.256,0.766,0.256,1.379c0,0.591-0.085,1.045-0.256,1.362
		c-0.17,0.319-0.527,0.477-1.072,0.477h-16.417c-6.722,0-10.082-2.112-10.082-6.335V31.471c0-4.224,3.36-6.335,10.082-6.335h5.075
		c0.522,0,0.868,0.153,1.038,0.46c0.171,0.306,0.256,0.766,0.256,1.379s-0.085,1.073-0.256,1.379c-0.17,0.307-0.516,0.46-1.038,0.46
		h-4.939c-1.998,0-3.452,0.255-4.36,0.766c-0.908,0.511-1.362,1.141-1.362,1.89v4.36h22.105c0.545,0,0.902,0.153,1.073,0.46
		c0.17,0.306,0.255,0.766,0.255,1.379c0,0.613-0.085,1.073-0.255,1.379c-0.171,0.307-0.528,0.46-1.073,0.46H212.536z"/>
	<path class="st0" d="M248.457,49.83c-6.722,0-10.082-2.112-10.082-6.335V31.471c0-4.224,3.36-6.335,10.082-6.335h16.689
		c0.545,0,0.903,0.153,1.073,0.46c0.17,0.306,0.255,0.766,0.255,1.379s-0.085,1.073-0.255,1.379c-0.17,0.307-0.528,0.46-1.073,0.46
		h-16.553c-1.998,0-3.452,0.255-4.36,0.766c-0.908,0.511-1.362,1.141-1.362,1.89v12.023c0,0.727,0.454,1.351,1.362,1.873
		c0.908,0.523,2.361,0.783,4.36,0.783h16.587c0.545,0,0.897,0.153,1.056,0.46c0.158,0.306,0.238,0.766,0.238,1.379
		c0,0.591-0.08,1.045-0.238,1.362c-0.159,0.319-0.511,0.477-1.056,0.477H248.457z"/>
	<path class="st0" d="M273.535,35.831h21.934v-9.231c0-0.658,0.192-1.09,0.579-1.294c0.386-0.204,0.954-0.306,1.703-0.306
		c0.726,0,1.283,0.102,1.669,0.306c0.386,0.205,0.579,0.636,0.579,1.294v21.765c0,0.659-0.193,1.09-0.579,1.294
		c-0.386,0.204-0.942,0.306-1.669,0.306c-0.749,0-1.317-0.102-1.703-0.306c-0.387-0.205-0.579-0.635-0.579-1.294V39.51h-21.934
		v8.856c0,0.659-0.194,1.09-0.579,1.294c-0.387,0.204-0.954,0.306-1.703,0.306c-0.727,0-1.283-0.102-1.669-0.306
		c-0.386-0.205-0.578-0.635-0.578-1.294V26.601c0-0.658,0.192-1.09,0.578-1.294c0.386-0.204,0.942-0.306,1.669-0.306
		c0.749,0,1.317,0.102,1.703,0.306c0.385,0.205,0.579,0.636,0.579,1.294V35.831z"/>
	<g>
		<linearGradient id="SVGID_1_" gradientUnits="userSpaceOnUse" x1="25.3793" y1="49.6059" x2="32.8488" y2="42.1364">
			<stop  offset="0" style="stop-color:#7DCDF4"/>
			<stop  offset="1" style="stop-color:#007AC3"/>
		</linearGradient>
		<path class="st1" d="M30.437,43.671h3.947l-3.153,2.36L32.455,50l-3.34-2.403L25.773,50l1.224-3.969l-3.154-2.36h3.947
			l1.323-3.925L30.437,43.671z"/>
	</g>
	<path class="st2" d="M12.658,43.671c0,3.495-2.834,6.329-6.329,6.329S0,47.166,0,43.671h0V33.544l0-3.797
		c0-4.894,3.967-8.861,8.861-8.861H25c2.272,0,4.114-1.842,4.114-4.114S27.272,12.658,25,12.658H6.329C2.834,12.658,0,9.825,0,6.329
		S2.834,0,6.329,0H25c9.263,0,16.772,7.509,16.772,16.772S34.263,33.544,25,33.544H12.658V43.671z"/>
	<g>
		<path class="st3" d="M6.329,12.658H25c2.272,0,4.114,1.842,4.114,4.114S27.272,20.886,25,20.886
			c5.768,0,10.443-4.676,10.443-10.443C35.443,4.676,30.768,0,25,0H6.329C2.834,0,0,2.834,0,6.329
			C0,9.825,2.834,12.658,6.329,12.658z"/>
	</g>
	<path class="st4" d="M12.658,43.671c0,3.495-2.834,6.329-6.329,6.329S0,47.166,0,43.671l0-1.266c0-4.894,3.967-8.861,8.861-8.861
		h3.797V43.671z"/>
</g>
</svg>
